<?xml version="1.0" encoding="utf-8"?>
<!-- Generator: Adobe Illustrator 23.0.1, SVG Export Plug-In . SVG Version: 6.00 Build 0)  -->
<svg version="1.1" id="Слой_1" xmlns="http://www.w3.org/2000/svg" xmlns:xlink="http://www.w3.org/1999/xlink" x="0px" y="0px"
	 viewBox="0 0 20 20" style="enable-background:new 0 0 20 20;" xml:space="preserve">
<style type="text/css">
	.st0{fill:none;stroke:#000000;stroke-linecap:round;stroke-miterlimit:10;}
	.st1{fill:none;stroke:#000000;stroke-linecap:round;stroke-linejoin:round;stroke-miterlimit:10;}
	.st2{fill:none;stroke:#000000;stroke-width:0.5;stroke-linecap:round;stroke-linejoin:round;stroke-miterlimit:10;}
	.st3{stroke:#000000;stroke-linecap:round;stroke-linejoin:round;stroke-miterlimit:10;}
</style>
<line class="st0" x1="2.5" y1="1.5" x2="0.5" y2="1.5"/>
<line class="st1" x1="0.5" y1="16.5" x2="0.5" y2="1.5"/>
<line class="st1" x1="11.5" y1="16.5" x2="0.5" y2="16.5"/>
<line class="st1" x1="16.5" y1="1.5" x2="16.5" y2="11.5"/>
<line class="st1" x1="14.5" y1="1.5" x2="16.5" y2="1.5"/>
<circle class="st1" cx="16.5" cy="16.5" r="3"/>
<line class="st2" x1="16.5" y1="14.5" x2="16.5" y2="16.5"/>
<line class="st2" x1="18.5" y1="16.5" x2="16.5" y2="16.5"/>
<rect x="3.5" y="12.5" class="st3" width="2" height="2"/>
<rect x="7.5" y="12.5" class="st3" width="2" height="2"/>
<rect x="3.5" y="8.5" class="st3" width="2" height="2"/>
<rect x="7.5" y="8.5" class="st3" width="2" height="2"/>
<rect x="11.5" y="8.5" class="st3" width="2" height="2"/>
<rect x="3.5" y="4.5" class="st3" width="2" height="2"/>
<rect x="7.5" y="4.5" class="st3" width="2" height="2"/>
<rect x="11.5" y="4.5" class="st3" width="2" height="2"/>
<line class="st1" x1="4.5" y1="0.5" x2="4.5" y2="2.5"/>
<line class="st1" x1="12.5" y1="0.5" x2="12.5" y2="2.5"/>
<line class="st1" x1="6.5" y1="1.5" x2="10.5" y2="1.5"/>
</svg>
